# MagicaVoxel @ Ephtracy

# group
o 

# material
mtllib targit.mtl
usemtl palette

# normals
vn -1 0 0
vn 1 0 0
vn 0 0 1
vn 0 0 -1
vn 0 -1 0
vn 0 1 0

# texcoords
vt 0.208984 0.5
vt 0.876953 0.5
vt 0.958984 0.5

# verts
v -1.5 2.4 0
v -1.5 2.4 -0.1
v -1.5 3.1 0
v -1.5 3.1 -0.1
v -1.4 1.9 0
v -1.4 1.9 -0.1
v -1.4 2.4 0
v -1.4 2.4 -0.1
v -1.4 3.1 0
v -1.4 3.1 -0.1
v -1.4 3.4 0
v -1.4 3.4 -0.1
v -1.3 3.4 0
v -1.3 3.4 -0.1
v -1.3 3.8 0
v -1.3 3.8 -0.1
v -1.2 3.8 0
v -1.2 3.8 -0.1
v -1.2 4 0
v -1.2 4 -0.1
v -1.1 0 0
v -1.1 0 -0.1
v -1.1 0.3 0
v -1.1 0.3 -0.1
v -1.1 4 0
v -1.1 4 -0.1
v -1.1 4.3 0
v -1.1 4.3 -0.1
v -1.1 5.5 0
v -1.1 5.5 -0.1
v -1.1 5.6 0
v -1.1 5.6 -0.1
v -1 4.3 0
v -1 4.3 -0.1
v -1 4.5 0
v -1 4.5 -0.1
v -1 5.4 0
v -1 5.4 -0.1
v -1 5.5 0
v -1 5.5 -0.1
v -1 5.6 0
v -1 5.6 -0.1
v -1 5.8 0
v -1 5.8 -0.1
v -0.9 0.3 0
v -0.9 0.3 -0.1
v -0.9 0.4 0
v -0.9 0.4 -0.1
v -0.9 5.2 0
v -0.9 5.2 -0.1
v -0.9 5.4 0
v -0.9 5.4 -0.1
v -0.8 4.5 0
v -0.8 4.5 -0.1
v -0.8 4.7 0
v -0.8 4.7 -0.1
v -0.8 5.1 0
v -0.8 5.1 -0.1
v -0.8 5.2 0
v -0.8 5.2 -0.1
v -0.8 5.8 0
v -0.8 5.8 -0.1
v -0.8 5.9 0
v -0.8 5.9 -0.1
v -0.7 0.4 0
v -0.7 0.4 -0.1
v -0.7 0.5 0
v -0.7 0.5 -0.1
v -0.7 5 0
v -0.7 5 -0.1
v -0.7 5.1 0
v -0.7 5.1 -0.1
v -0.6 5.9 0
v -0.6 5.9 -0.1
v -0.6 6 0
v -0.6 6 -0.1
v -0.4 4.7 0
v -0.4 4.7 -0.1
v -0.4 5 0
v -0.4 5 -0.1
v -0.3 0.5 0
v -0.3 0.5 -0.1
v -0.3 1.9 0
v -0.3 1.9 -0.1
v 0.3 0.5 0
v 0.3 0.5 -0.1
v 0.3 1.9 0
v 0.3 1.9 -0.1
v 0.4 4.7 0
v 0.4 4.7 -0.1
v 0.4 5 0
v 0.4 5 -0.1
v 0.6 5.9 0
v 0.6 5.9 -0.1
v 0.6 6 0
v 0.6 6 -0.1
v 0.7 0.4 0
v 0.7 0.4 -0.1
v 0.7 0.5 0
v 0.7 0.5 -0.1
v 0.7 5 0
v 0.7 5 -0.1
v 0.7 5.1 0
v 0.7 5.1 -0.1
v 0.8 4.5 0
v 0.8 4.5 -0.1
v 0.8 4.7 0
v 0.8 4.7 -0.1
v 0.8 5.1 0
v 0.8 5.1 -0.1
v 0.8 5.2 0
v 0.8 5.2 -0.1
v 0.8 5.8 0
v 0.8 5.8 -0.1
v 0.8 5.9 0
v 0.8 5.9 -0.1
v 0.9 0.3 0
v 0.9 0.3 -0.1
v 0.9 0.4 0
v 0.9 0.4 -0.1
v 0.9 5.2 0
v 0.9 5.2 -0.1
v 0.9 5.4 0
v 0.9 5.4 -0.1
v 1 4.3 0
v 1 4.3 -0.1
v 1 4.5 0
v 1 4.5 -0.1
v 1 5.4 0
v 1 5.4 -0.1
v 1 5.5 0
v 1 5.5 -0.1
v 1 5.6 0
v 1 5.6 -0.1
v 1 5.8 0
v 1 5.8 -0.1
v 1.1 0 0
v 1.1 0 -0.1
v 1.1 0.3 0
v 1.1 0.3 -0.1
v 1.1 4 0
v 1.1 4 -0.1
v 1.1 4.3 0
v 1.1 4.3 -0.1
v 1.1 5.5 0
v 1.1 5.5 -0.1
v 1.1 5.6 0
v 1.1 5.6 -0.1
v 1.2 3.8 0
v 1.2 3.8 -0.1
v 1.2 4 0
v 1.2 4 -0.1
v 1.3 3.4 0
v 1.3 3.4 -0.1
v 1.3 3.8 0
v 1.3 3.8 -0.1
v 1.4 1.9 0
v 1.4 1.9 -0.1
v 1.4 2.4 0
v 1.4 2.4 -0.1
v 1.4 3.1 0
v 1.4 3.1 -0.1
v 1.4 3.4 0
v 1.4 3.4 -0.1
v 1.5 2.4 0
v 1.5 2.4 -0.1
v 1.5 3.1 0
v 1.5 3.1 -0.1
v -1.5 2.4 0
v -1.5 3.1 0
v -1.4 1.9 0
v -1.4 2.4 0
v -1.4 3.1 0
v -1.4 3.4 0
v -1.3 3.4 0
v -1.3 3.8 0
v -1.2 3.8 0
v -1.2 4 0
v -1.1 0 0
v -1.1 0.3 0
v -1.1 2.6 0
v -1.1 4 0
v -1.1 4.3 0
v -1.1 5.5 0
v -1.1 5.6 0
v -1 2.7 0
v -1 4.2 0
v -1 4.3 0
v -1 4.5 0
v -1 5.4 0
v -1 5.5 0
v -1 5.6 0
v -1 5.8 0
v -0.9 0.3 0
v -0.9 0.4 0
v -0.9 5.2 0
v -0.9 5.4 0
v -0.8 2.9 0
v -0.8 4 0
v -0.8 4.5 0
v -0.8 4.7 0
v -0.8 5.1 0
v -0.8 5.2 0
v -0.8 5.8 0
v -0.8 5.9 0
v -0.7 0.4 0
v -0.7 0.5 0
v -0.7 2.8 0
v -0.7 2.9 0
v -0.7 4 0
v -0.7 4.1 0
v -0.7 5 0
v -0.7 5.1 0
v -0.6 5.9 0
v -0.6 6 0
v -0.4 3.1 0
v -0.4 3.8 0
v -0.4 4.7 0
v -0.4 5 0
v -0.4 5.2 0
v -0.4 5.8 0
v -0.3 0.5 0
v -0.3 1.9 0
v -0.3 3.2 0
v -0.3 3.7 0
v -0.3 5.3 0
v -0.3 5.7 0
v -0.2 3.3 0
v -0.2 3.6 0
v -0.1 5.4 0
v -0.1 5.6 0
v 0.1 5.4 0
v 0.1 5.6 0
v 0.2 3.3 0
v 0.2 3.6 0
v 0.3 0.5 0
v 0.3 1.9 0
v 0.3 3.2 0
v 0.3 3.7 0
v 0.3 5.3 0
v 0.3 5.7 0
v 0.4 3.1 0
v 0.4 3.8 0
v 0.4 4.7 0
v 0.4 5 0
v 0.4 5.2 0
v 0.4 5.8 0
v 0.6 5.9 0
v 0.6 6 0
v 0.7 0.4 0
v 0.7 0.5 0
v 0.7 2.8 0
v 0.7 2.9 0
v 0.7 4 0
v 0.7 4.1 0
v 0.7 5 0
v 0.7 5.1 0
v 0.8 2.9 0
v 0.8 4 0
v 0.8 4.5 0
v 0.8 4.7 0
v 0.8 5.1 0
v 0.8 5.2 0
v 0.8 5.8 0
v 0.8 5.9 0
v 0.9 0.3 0
v 0.9 0.4 0
v 0.9 5.2 0
v 0.9 5.4 0
v 1 2.7 0
v 1 4.2 0
v 1 4.3 0
v 1 4.5 0
v 1 5.4 0
v 1 5.5 0
v 1 5.6 0
v 1 5.8 0
v 1.1 0 0
v 1.1 0.3 0
v 1.1 2.6 0
v 1.1 4 0
v 1.1 4.3 0
v 1.1 5.5 0
v 1.1 5.6 0
v 1.2 3.8 0
v 1.2 4 0
v 1.3 3.4 0
v 1.3 3.8 0
v 1.4 1.9 0
v 1.4 2.4 0
v 1.4 3.1 0
v 1.4 3.4 0
v 1.5 2.4 0
v 1.5 3.1 0
v -1.5 2.4 -0.1
v -1.5 3.1 -0.1
v -1.4 1.9 -0.1
v -1.4 2.4 -0.1
v -1.4 3.1 -0.1
v -1.4 3.4 -0.1
v -1.3 3.4 -0.1
v -1.3 3.8 -0.1
v -1.2 3.8 -0.1
v -1.2 4 -0.1
v -1.1 0 -0.1
v -1.1 0.3 -0.1
v -1.1 2.6 -0.1
v -1.1 4 -0.1
v -1.1 4.3 -0.1
v -1.1 5.5 -0.1
v -1.1 5.6 -0.1
v -1 2.7 -0.1
v -1 4.2 -0.1
v -1 4.3 -0.1
v -1 4.5 -0.1
v -1 5.4 -0.1
v -1 5.5 -0.1
v -1 5.6 -0.1
v -1 5.8 -0.1
v -0.9 0.3 -0.1
v -0.9 0.4 -0.1
v -0.9 5.2 -0.1
v -0.9 5.4 -0.1
v -0.8 2.9 -0.1
v -0.8 4 -0.1
v -0.8 4.5 -0.1
v -0.8 4.7 -0.1
v -0.8 5.1 -0.1
v -0.8 5.2 -0.1
v -0.8 5.8 -0.1
v -0.8 5.9 -0.1
v -0.7 0.4 -0.1
v -0.7 0.5 -0.1
v -0.7 2.8 -0.1
v -0.7 2.9 -0.1
v -0.7 4 -0.1
v -0.7 4.1 -0.1
v -0.7 5 -0.1
v -0.7 5.1 -0.1
v -0.6 5.9 -0.1
v -0.6 6 -0.1
v -0.4 3.1 -0.1
v -0.4 3.8 -0.1
v -0.4 4.7 -0.1
v -0.4 5 -0.1
v -0.4 5.2 -0.1
v -0.4 5.8 -0.1
v -0.3 0.5 -0.1
v -0.3 1.9 -0.1
v -0.3 3.2 -0.1
v -0.3 3.7 -0.1
v -0.3 5.3 -0.1
v -0.3 5.7 -0.1
v -0.2 3.3 -0.1
v -0.2 3.6 -0.1
v -0.1 5.4 -0.1
v -0.1 5.6 -0.1
v 0.1 5.4 -0.1
v 0.1 5.6 -0.1
v 0.2 3.3 -0.1
v 0.2 3.6 -0.1
v 0.3 0.5 -0.1
v 0.3 1.9 -0.1
v 0.3 3.2 -0.1
v 0.3 3.7 -0.1
v 0.3 5.3 -0.1
v 0.3 5.7 -0.1
v 0.4 3.1 -0.1
v 0.4 3.8 -0.1
v 0.4 4.7 -0.1
v 0.4 5 -0.1
v 0.4 5.2 -0.1
v 0.4 5.8 -0.1
v 0.6 5.9 -0.1
v 0.6 6 -0.1
v 0.7 0.4 -0.1
v 0.7 0.5 -0.1
v 0.7 2.8 -0.1
v 0.7 2.9 -0.1
v 0.7 4 -0.1
v 0.7 4.1 -0.1
v 0.7 5 -0.1
v 0.7 5.1 -0.1
v 0.8 2.9 -0.1
v 0.8 4 -0.1
v 0.8 4.5 -0.1
v 0.8 4.7 -0.1
v 0.8 5.1 -0.1
v 0.8 5.2 -0.1
v 0.8 5.8 -0.1
v 0.8 5.9 -0.1
v 0.9 0.3 -0.1
v 0.9 0.4 -0.1
v 0.9 5.2 -0.1
v 0.9 5.4 -0.1
v 1 2.7 -0.1
v 1 4.2 -0.1
v 1 4.3 -0.1
v 1 4.5 -0.1
v 1 5.4 -0.1
v 1 5.5 -0.1
v 1 5.6 -0.1
v 1 5.8 -0.1
v 1.1 0 -0.1
v 1.1 0.3 -0.1
v 1.1 2.6 -0.1
v 1.1 4 -0.1
v 1.1 4.3 -0.1
v 1.1 5.5 -0.1
v 1.1 5.6 -0.1
v 1.2 3.8 -0.1
v 1.2 4 -0.1
v 1.3 3.4 -0.1
v 1.3 3.8 -0.1
v 1.4 1.9 -0.1
v 1.4 2.4 -0.1
v 1.4 3.1 -0.1
v 1.4 3.4 -0.1
v 1.5 2.4 -0.1
v 1.5 3.1 -0.1
v -1.1 0 0
v 1.1 0 0
v -1.1 0 -0.1
v 1.1 0 -0.1
v -1.4 1.9 0
v -0.3 1.9 0
v 0.3 1.9 0
v 1.4 1.9 0
v -1.4 1.9 -0.1
v -0.3 1.9 -0.1
v 0.3 1.9 -0.1
v 1.4 1.9 -0.1
v -1.5 2.4 0
v -1.4 2.4 0
v 1.4 2.4 0
v 1.5 2.4 0
v -1.5 2.4 -0.1
v -1.4 2.4 -0.1
v 1.4 2.4 -0.1
v 1.5 2.4 -0.1
v -0.7 5 0
v -0.4 5 0
v 0.4 5 0
v 0.7 5 0
v -0.7 5 -0.1
v -0.4 5 -0.1
v 0.4 5 -0.1
v 0.7 5 -0.1
v -0.8 5.1 0
v -0.7 5.1 0
v 0.7 5.1 0
v 0.8 5.1 0
v -0.8 5.1 -0.1
v -0.7 5.1 -0.1
v 0.7 5.1 -0.1
v 0.8 5.1 -0.1
v -0.9 5.2 0
v -0.8 5.2 0
v 0.8 5.2 0
v 0.9 5.2 0
v -0.9 5.2 -0.1
v -0.8 5.2 -0.1
v 0.8 5.2 -0.1
v 0.9 5.2 -0.1
v -1 5.4 0
v -0.9 5.4 0
v 0.9 5.4 0
v 1 5.4 0
v -1 5.4 -0.1
v -0.9 5.4 -0.1
v 0.9 5.4 -0.1
v 1 5.4 -0.1
v -1.1 5.5 0
v -1 5.5 0
v 1 5.5 0
v 1.1 5.5 0
v -1.1 5.5 -0.1
v -1 5.5 -0.1
v 1 5.5 -0.1
v 1.1 5.5 -0.1
v -1.1 0.3 0
v -0.9 0.3 0
v 0.9 0.3 0
v 1.1 0.3 0
v -1.1 0.3 -0.1
v -0.9 0.3 -0.1
v 0.9 0.3 -0.1
v 1.1 0.3 -0.1
v -0.9 0.4 0
v -0.7 0.4 0
v 0.7 0.4 0
v 0.9 0.4 0
v -0.9 0.4 -0.1
v -0.7 0.4 -0.1
v 0.7 0.4 -0.1
v 0.9 0.4 -0.1
v -0.7 0.5 0
v -0.3 0.5 0
v 0.3 0.5 0
v 0.7 0.5 0
v -0.7 0.5 -0.1
v -0.3 0.5 -0.1
v 0.3 0.5 -0.1
v 0.7 0.5 -0.1
v -1.5 3.1 0
v -1.4 3.1 0
v 1.4 3.1 0
v 1.5 3.1 0
v -1.5 3.1 -0.1
v -1.4 3.1 -0.1
v 1.4 3.1 -0.1
v 1.5 3.1 -0.1
v -1.4 3.4 0
v -1.3 3.4 0
v 1.3 3.4 0
v 1.4 3.4 0
v -1.4 3.4 -0.1
v -1.3 3.4 -0.1
v 1.3 3.4 -0.1
v 1.4 3.4 -0.1
v -1.3 3.8 0
v -1.2 3.8 0
v 1.2 3.8 0
v 1.3 3.8 0
v -1.3 3.8 -0.1
v -1.2 3.8 -0.1
v 1.2 3.8 -0.1
v 1.3 3.8 -0.1
v -1.2 4 0
v -1.1 4 0
v 1.1 4 0
v 1.2 4 0
v -1.2 4 -0.1
v -1.1 4 -0.1
v 1.1 4 -0.1
v 1.2 4 -0.1
v -1.1 4.3 0
v -1 4.3 0
v 1 4.3 0
v 1.1 4.3 0
v -1.1 4.3 -0.1
v -1 4.3 -0.1
v 1 4.3 -0.1
v 1.1 4.3 -0.1
v -1 4.5 0
v -0.8 4.5 0
v 0.8 4.5 0
v 1 4.5 0
v -1 4.5 -0.1
v -0.8 4.5 -0.1
v 0.8 4.5 -0.1
v 1 4.5 -0.1
v -0.8 4.7 0
v -0.4 4.7 0
v 0.4 4.7 0
v 0.8 4.7 0
v -0.8 4.7 -0.1
v -0.4 4.7 -0.1
v 0.4 4.7 -0.1
v 0.8 4.7 -0.1
v -1.1 5.6 0
v -1 5.6 0
v 1 5.6 0
v 1.1 5.6 0
v -1.1 5.6 -0.1
v -1 5.6 -0.1
v 1 5.6 -0.1
v 1.1 5.6 -0.1
v -1 5.8 0
v -0.8 5.8 0
v 0.8 5.8 0
v 1 5.8 0
v -1 5.8 -0.1
v -0.8 5.8 -0.1
v 0.8 5.8 -0.1
v 1 5.8 -0.1
v -0.8 5.9 0
v -0.6 5.9 0
v 0.6 5.9 0
v 0.8 5.9 0
v -0.8 5.9 -0.1
v -0.6 5.9 -0.1
v 0.6 5.9 -0.1
v 0.8 5.9 -0.1
v -0.6 6 0
v 0.6 6 0
v -0.6 6 -0.1
v 0.6 6 -0.1

# faces
f 3/1/1 2/1/1 1/1/1
f 4/1/1 2/1/1 3/1/1
f 7/1/1 6/1/1 5/1/1
f 8/1/1 6/1/1 7/1/1
f 11/1/1 10/1/1 9/1/1
f 12/1/1 10/1/1 11/1/1
f 15/1/1 14/1/1 13/1/1
f 16/1/1 14/1/1 15/1/1
f 19/1/1 18/1/1 17/1/1
f 20/1/1 18/1/1 19/1/1
f 23/2/1 22/2/1 21/2/1
f 24/2/1 22/2/1 23/2/1
f 27/3/1 26/3/1 25/3/1
f 28/3/1 26/3/1 27/3/1
f 31/1/1 30/1/1 29/1/1
f 32/1/1 30/1/1 31/1/1
f 35/1/1 34/1/1 33/1/1
f 36/1/1 34/1/1 35/1/1
f 39/1/1 38/1/1 37/1/1
f 40/1/1 38/1/1 39/1/1
f 43/1/1 42/1/1 41/1/1
f 44/1/1 42/1/1 43/1/1
f 47/2/1 46/2/1 45/2/1
f 48/2/1 46/2/1 47/2/1
f 51/1/1 50/1/1 49/1/1
f 52/1/1 50/1/1 51/1/1
f 55/1/1 54/1/1 53/1/1
f 56/1/1 54/1/1 55/1/1
f 59/1/1 58/1/1 57/1/1
f 60/1/1 58/1/1 59/1/1
f 63/1/1 62/1/1 61/1/1
f 64/1/1 62/1/1 63/1/1
f 67/2/1 66/2/1 65/2/1
f 68/2/1 66/2/1 67/2/1
f 71/1/1 70/1/1 69/1/1
f 72/1/1 70/1/1 71/1/1
f 75/1/1 74/1/1 73/1/1
f 76/1/1 74/1/1 75/1/1
f 79/2/1 78/2/1 77/2/1
f 80/2/1 78/2/1 79/2/1
f 83/2/1 82/2/1 81/2/1
f 84/2/1 82/2/1 83/2/1
f 85/2/2 86/2/2 87/2/2
f 87/2/2 86/2/2 88/2/2
f 89/2/2 90/2/2 91/2/2
f 91/2/2 90/2/2 92/2/2
f 93/1/2 94/1/2 95/1/2
f 95/1/2 94/1/2 96/1/2
f 97/2/2 98/2/2 99/2/2
f 99/2/2 98/2/2 100/2/2
f 101/1/2 102/1/2 103/1/2
f 103/1/2 102/1/2 104/1/2
f 105/1/2 106/1/2 107/1/2
f 107/1/2 106/1/2 108/1/2
f 109/1/2 110/1/2 111/1/2
f 111/1/2 110/1/2 112/1/2
f 113/1/2 114/1/2 115/1/2
f 115/1/2 114/1/2 116/1/2
f 117/2/2 118/2/2 119/2/2
f 119/2/2 118/2/2 120/2/2
f 121/1/2 122/1/2 123/1/2
f 123/1/2 122/1/2 124/1/2
f 125/1/2 126/1/2 127/1/2
f 127/1/2 126/1/2 128/1/2
f 129/1/2 130/1/2 131/1/2
f 131/1/2 130/1/2 132/1/2
f 133/1/2 134/1/2 135/1/2
f 135/1/2 134/1/2 136/1/2
f 137/2/2 138/2/2 139/2/2
f 139/2/2 138/2/2 140/2/2
f 141/3/2 142/3/2 143/3/2
f 143/3/2 142/3/2 144/3/2
f 145/1/2 146/1/2 147/1/2
f 147/1/2 146/1/2 148/1/2
f 149/1/2 150/1/2 151/1/2
f 151/1/2 150/1/2 152/1/2
f 153/1/2 154/1/2 155/1/2
f 155/1/2 154/1/2 156/1/2
f 157/1/2 158/1/2 159/1/2
f 159/1/2 158/1/2 160/1/2
f 161/1/2 162/1/2 163/1/2
f 163/1/2 162/1/2 164/1/2
f 165/1/2 166/1/2 167/1/2
f 167/1/2 166/1/2 168/1/2
f 172/1/3 170/1/3 169/1/3
f 173/1/3 170/1/3 172/1/3
f 175/1/3 172/1/3 171/1/3
f 175/1/3 174/1/3 173/1/3
f 175/1/3 173/1/3 172/1/3
f 177/1/3 176/1/3 175/1/3
f 181/1/3 175/1/3 171/1/3
f 181/1/3 177/1/3 175/1/3
f 181/1/3 178/1/3 177/1/3
f 182/1/3 178/1/3 181/1/3
f 186/3/3 182/3/3 181/3/3
f 186/3/3 183/3/3 182/3/3
f 187/3/3 183/3/3 186/3/3
f 188/3/3 183/3/3 187/3/3
f 191/1/3 185/1/3 184/1/3
f 192/1/3 185/1/3 191/1/3
f 194/2/3 180/2/3 179/2/3
f 197/1/3 193/1/3 192/1/3
f 197/1/3 191/1/3 190/1/3
f 197/1/3 192/1/3 191/1/3
f 198/1/3 187/1/3 186/1/3
f 199/1/3 187/1/3 198/1/3
f 200/1/3 189/1/3 188/1/3
f 203/1/3 197/1/3 196/1/3
f 204/1/3 193/1/3 197/1/3
f 204/1/3 197/1/3 203/1/3
f 206/2/3 195/2/3 194/2/3
f 208/1/3 198/1/3 186/1/3
f 209/3/3 199/3/3 198/3/3
f 209/1/3 198/1/3 208/1/3
f 210/1/3 187/1/3 199/1/3
f 210/3/3 199/3/3 209/3/3
f 211/1/3 187/1/3 210/1/3
f 213/1/3 205/1/3 204/1/3
f 213/1/3 203/1/3 202/1/3
f 213/1/3 204/1/3 203/1/3
f 214/1/3 205/1/3 213/1/3
f 214/1/3 213/1/3 212/1/3
f 216/1/3 210/1/3 209/1/3
f 217/1/3 210/1/3 216/1/3
f 218/1/3 201/1/3 200/1/3
f 219/1/3 215/1/3 214/1/3
f 219/1/3 214/1/3 212/1/3
f 220/1/3 215/1/3 219/1/3
f 221/1/3 215/1/3 220/1/3
f 222/2/3 207/2/3 206/2/3
f 223/1/3 181/1/3 171/1/3
f 224/3/3 217/3/3 216/3/3
f 225/3/3 217/3/3 224/3/3
f 226/3/3 221/3/3 220/3/3
f 227/3/3 221/3/3 226/3/3
f 228/1/3 225/1/3 224/1/3
f 229/1/3 225/1/3 228/1/3
f 230/1/3 227/1/3 226/1/3
f 231/1/3 227/1/3 230/1/3
f 232/1/3 230/1/3 226/1/3
f 232/3/3 231/3/3 230/3/3
f 233/1/3 227/1/3 231/1/3
f 233/3/3 231/3/3 232/3/3
f 234/1/3 228/1/3 224/1/3
f 234/3/3 229/3/3 228/3/3
f 235/1/3 225/1/3 229/1/3
f 235/3/3 229/3/3 234/3/3
f 236/2/3 222/2/3 206/2/3
f 236/2/3 223/2/3 222/2/3
f 237/1/3 181/1/3 223/1/3
f 237/2/3 223/2/3 236/2/3
f 238/1/3 235/1/3 234/1/3
f 238/3/3 224/3/3 216/3/3
f 238/1/3 234/1/3 224/1/3
f 239/1/3 225/1/3 235/1/3
f 239/1/3 235/1/3 238/1/3
f 239/3/3 217/3/3 225/3/3
f 240/1/3 233/1/3 232/1/3
f 240/3/3 226/3/3 220/3/3
f 240/1/3 232/1/3 226/1/3
f 241/3/3 221/3/3 227/3/3
f 241/1/3 233/1/3 240/1/3
f 241/1/3 227/1/3 233/1/3
f 242/3/3 238/3/3 216/3/3
f 242/1/3 216/1/3 209/1/3
f 242/3/3 239/3/3 238/3/3
f 243/1/3 210/1/3 217/1/3
f 243/3/3 239/3/3 242/3/3
f 243/3/3 217/3/3 239/3/3
f 244/1/3 218/1/3 200/1/3
f 244/2/3 219/2/3 218/2/3
f 245/1/3 220/1/3 219/1/3
f 245/2/3 219/2/3 244/2/3
f 246/3/3 241/3/3 240/3/3
f 246/1/3 220/1/3 245/1/3
f 246/3/3 240/3/3 220/3/3
f 247/3/3 221/3/3 241/3/3
f 247/3/3 241/3/3 246/3/3
f 247/1/3 215/1/3 221/1/3
f 248/1/3 246/1/3 245/1/3
f 248/1/3 215/1/3 247/1/3
f 248/1/3 247/1/3 246/1/3
f 249/1/3 215/1/3 248/1/3
f 250/2/3 236/2/3 206/2/3
f 250/2/3 206/2/3 194/2/3
f 251/2/3 236/2/3 250/2/3
f 252/3/3 209/3/3 208/3/3
f 252/1/3 208/1/3 186/1/3
f 253/1/3 242/1/3 209/1/3
f 253/3/3 209/3/3 252/3/3
f 253/1/3 243/1/3 242/1/3
f 254/3/3 211/3/3 210/3/3
f 254/1/3 243/1/3 253/1/3
f 254/1/3 210/1/3 243/1/3
f 255/1/3 187/1/3 211/1/3
f 255/3/3 211/3/3 254/3/3
f 256/1/3 248/1/3 245/1/3
f 257/1/3 248/1/3 256/1/3
f 258/3/3 254/3/3 253/3/3
f 258/1/3 253/1/3 252/1/3
f 259/1/3 255/1/3 254/1/3
f 259/3/3 254/3/3 258/3/3
f 260/1/3 200/1/3 188/1/3
f 260/1/3 244/1/3 200/1/3
f 261/1/3 244/1/3 260/1/3
f 262/1/3 248/1/3 257/1/3
f 263/1/3 248/1/3 262/1/3
f 264/1/3 248/1/3 263/1/3
f 265/1/3 248/1/3 264/1/3
f 266/2/3 194/2/3 179/2/3
f 266/2/3 250/2/3 194/2/3
f 267/2/3 250/2/3 266/2/3
f 268/1/3 264/1/3 263/1/3
f 269/1/3 264/1/3 268/1/3
f 270/3/3 186/3/3 181/3/3
f 270/1/3 252/1/3 186/1/3
f 270/1/3 258/1/3 252/1/3
f 270/1/3 259/1/3 258/1/3
f 271/3/3 188/3/3 187/3/3
f 271/1/3 259/1/3 270/1/3
f 271/1/3 255/1/3 259/1/3
f 271/1/3 187/1/3 255/1/3
f 272/1/3 260/1/3 188/1/3
f 272/3/3 188/3/3 271/3/3
f 273/1/3 260/1/3 272/1/3
f 274/1/3 264/1/3 269/1/3
f 275/1/3 264/1/3 274/1/3
f 276/1/3 264/1/3 275/1/3
f 277/1/3 264/1/3 276/1/3
f 278/2/3 266/2/3 179/2/3
f 279/2/3 266/2/3 278/2/3
f 280/3/3 270/3/3 181/3/3
f 280/3/3 271/3/3 270/3/3
f 280/1/3 181/1/3 237/1/3
f 280/3/3 272/3/3 271/3/3
f 281/3/3 272/3/3 280/3/3
f 282/3/3 272/3/3 281/3/3
f 283/1/3 276/1/3 275/1/3
f 284/1/3 276/1/3 283/1/3
f 285/1/3 281/1/3 280/1/3
f 286/1/3 281/1/3 285/1/3
f 287/1/3 285/1/3 280/1/3
f 288/1/3 285/1/3 287/1/3
f 289/1/3 280/1/3 237/1/3
f 289/1/3 287/1/3 280/1/3
f 290/1/3 287/1/3 289/1/3
f 291/1/3 287/1/3 290/1/3
f 292/1/3 287/1/3 291/1/3
f 293/1/3 291/1/3 290/1/3
f 294/1/3 291/1/3 293/1/3
f 295/1/4 296/1/4 298/1/4
f 298/1/4 296/1/4 299/1/4
f 297/1/4 298/1/4 301/1/4
f 299/1/4 300/1/4 301/1/4
f 298/1/4 299/1/4 301/1/4
f 301/1/4 302/1/4 303/1/4
f 297/1/4 301/1/4 307/1/4
f 301/1/4 303/1/4 307/1/4
f 303/1/4 304/1/4 307/1/4
f 307/1/4 304/1/4 308/1/4
f 307/3/4 308/3/4 312/3/4
f 308/3/4 309/3/4 312/3/4
f 312/3/4 309/3/4 313/3/4
f 313/3/4 309/3/4 314/3/4
f 310/1/4 311/1/4 317/1/4
f 317/1/4 311/1/4 318/1/4
f 305/2/4 306/2/4 320/2/4
f 318/1/4 319/1/4 323/1/4
f 316/1/4 317/1/4 323/1/4
f 317/1/4 318/1/4 323/1/4
f 312/1/4 313/1/4 324/1/4
f 324/1/4 313/1/4 325/1/4
f 314/1/4 315/1/4 326/1/4
f 322/1/4 323/1/4 329/1/4
f 323/1/4 319/1/4 330/1/4
f 329/1/4 323/1/4 330/1/4
f 320/2/4 321/2/4 332/2/4
f 312/1/4 324/1/4 334/1/4
f 324/3/4 325/3/4 335/3/4
f 334/1/4 324/1/4 335/1/4
f 325/1/4 313/1/4 336/1/4
f 335/3/4 325/3/4 336/3/4
f 336/1/4 313/1/4 337/1/4
f 330/1/4 331/1/4 339/1/4
f 328/1/4 329/1/4 339/1/4
f 329/1/4 330/1/4 339/1/4
f 339/1/4 331/1/4 340/1/4
f 338/1/4 339/1/4 340/1/4
f 335/1/4 336/1/4 342/1/4
f 342/1/4 336/1/4 343/1/4
f 326/1/4 327/1/4 344/1/4
f 340/1/4 341/1/4 345/1/4
f 338/1/4 340/1/4 345/1/4
f 345/1/4 341/1/4 346/1/4
f 346/1/4 341/1/4 347/1/4
f 332/2/4 333/2/4 348/2/4
f 297/1/4 307/1/4 349/1/4
f 342/3/4 343/3/4 350/3/4
f 350/3/4 343/3/4 351/3/4
f 346/3/4 347/3/4 352/3/4
f 352/3/4 347/3/4 353/3/4
f 350/1/4 351/1/4 354/1/4
f 354/1/4 351/1/4 355/1/4
f 352/1/4 353/1/4 356/1/4
f 356/1/4 353/1/4 357/1/4
f 352/1/4 356/1/4 358/1/4
f 356/3/4 357/3/4 358/3/4
f 357/1/4 353/1/4 359/1/4
f 358/3/4 357/3/4 359/3/4
f 350/1/4 354/1/4 360/1/4
f 354/3/4 355/3/4 360/3/4
f 355/1/4 351/1/4 361/1/4
f 360/3/4 355/3/4 361/3/4
f 332/2/4 348/2/4 362/2/4
f 348/2/4 349/2/4 362/2/4
f 349/1/4 307/1/4 363/1/4
f 362/2/4 349/2/4 363/2/4
f 360/1/4 361/1/4 364/1/4
f 342/3/4 350/3/4 364/3/4
f 350/1/4 360/1/4 364/1/4
f 361/1/4 351/1/4 365/1/4
f 364/1/4 361/1/4 365/1/4
f 351/3/4 343/3/4 365/3/4
f 358/1/4 359/1/4 366/1/4
f 346/3/4 352/3/4 366/3/4
f 352/1/4 358/1/4 366/1/4
f 353/3/4 347/3/4 367/3/4
f 366/1/4 359/1/4 367/1/4
f 359/1/4 353/1/4 367/1/4
f 342/3/4 364/3/4 368/3/4
f 335/1/4 342/1/4 368/1/4
f 364/3/4 365/3/4 368/3/4
f 343/1/4 336/1/4 369/1/4
f 368/3/4 365/3/4 369/3/4
f 365/3/4 343/3/4 369/3/4
f 326/1/4 344/1/4 370/1/4
f 344/2/4 345/2/4 370/2/4
f 345/1/4 346/1/4 371/1/4
f 370/2/4 345/2/4 371/2/4
f 366/3/4 367/3/4 372/3/4
f 371/1/4 346/1/4 372/1/4
f 346/3/4 366/3/4 372/3/4
f 367/3/4 347/3/4 373/3/4
f 372/3/4 367/3/4 373/3/4
f 347/1/4 341/1/4 373/1/4
f 371/1/4 372/1/4 374/1/4
f 373/1/4 341/1/4 374/1/4
f 372/1/4 373/1/4 374/1/4
f 374/1/4 341/1/4 375/1/4
f 332/2/4 362/2/4 376/2/4
f 320/2/4 332/2/4 376/2/4
f 376/2/4 362/2/4 377/2/4
f 334/3/4 335/3/4 378/3/4
f 312/1/4 334/1/4 378/1/4
f 335/1/4 368/1/4 379/1/4
f 378/3/4 335/3/4 379/3/4
f 368/1/4 369/1/4 379/1/4
f 336/3/4 337/3/4 380/3/4
f 379/1/4 369/1/4 380/1/4
f 369/1/4 336/1/4 380/1/4
f 337/1/4 313/1/4 381/1/4
f 380/3/4 337/3/4 381/3/4
f 371/1/4 374/1/4 382/1/4
f 382/1/4 374/1/4 383/1/4
f 379/3/4 380/3/4 384/3/4
f 378/1/4 379/1/4 384/1/4
f 380/1/4 381/1/4 385/1/4
f 384/3/4 380/3/4 385/3/4
f 314/1/4 326/1/4 386/1/4
f 326/1/4 370/1/4 386/1/4
f 386/1/4 370/1/4 387/1/4
f 383/1/4 374/1/4 388/1/4
f 388/1/4 374/1/4 389/1/4
f 389/1/4 374/1/4 390/1/4
f 390/1/4 374/1/4 391/1/4
f 305/2/4 320/2/4 392/2/4
f 320/2/4 376/2/4 392/2/4
f 392/2/4 376/2/4 393/2/4
f 389/1/4 390/1/4 394/1/4
f 394/1/4 390/1/4 395/1/4
f 307/3/4 312/3/4 396/3/4
f 312/1/4 378/1/4 396/1/4
f 378/1/4 384/1/4 396/1/4
f 384/1/4 385/1/4 396/1/4
f 313/3/4 314/3/4 397/3/4
f 396/1/4 385/1/4 397/1/4
f 385/1/4 381/1/4 397/1/4
f 381/1/4 313/1/4 397/1/4
f 314/1/4 386/1/4 398/1/4
f 397/3/4 314/3/4 398/3/4
f 398/1/4 386/1/4 399/1/4
f 395/1/4 390/1/4 400/1/4
f 400/1/4 390/1/4 401/1/4
f 401/1/4 390/1/4 402/1/4
f 402/1/4 390/1/4 403/1/4
f 305/2/4 392/2/4 404/2/4
f 404/2/4 392/2/4 405/2/4
f 307/3/4 396/3/4 406/3/4
f 396/3/4 397/3/4 406/3/4
f 363/1/4 307/1/4 406/1/4
f 397/3/4 398/3/4 406/3/4
f 406/3/4 398/3/4 407/3/4
f 407/3/4 398/3/4 408/3/4
f 401/1/4 402/1/4 409/1/4
f 409/1/4 402/1/4 410/1/4
f 406/1/4 407/1/4 411/1/4
f 411/1/4 407/1/4 412/1/4
f 406/1/4 411/1/4 413/1/4
f 413/1/4 411/1/4 414/1/4
f 363/1/4 406/1/4 415/1/4
f 406/1/4 413/1/4 415/1/4
f 415/1/4 413/1/4 416/1/4
f 416/1/4 413/1/4 417/1/4
f 417/1/4 413/1/4 418/1/4
f 416/1/4 417/1/4 419/1/4
f 419/1/4 417/1/4 420/1/4
f 423/2/5 422/2/5 421/2/5
f 424/2/5 422/2/5 423/2/5
f 429/1/5 426/1/5 425/1/5
f 430/1/5 426/1/5 429/1/5
f 431/1/5 428/1/5 427/1/5
f 432/1/5 428/1/5 431/1/5
f 437/1/5 434/1/5 433/1/5
f 438/1/5 434/1/5 437/1/5
f 439/1/5 436/1/5 435/1/5
f 440/1/5 436/1/5 439/1/5
f 445/1/5 442/1/5 441/1/5
f 446/1/5 442/1/5 445/1/5
f 447/1/5 444/1/5 443/1/5
f 448/1/5 444/1/5 447/1/5
f 453/1/5 450/1/5 449/1/5
f 454/1/5 450/1/5 453/1/5
f 455/1/5 452/1/5 451/1/5
f 456/1/5 452/1/5 455/1/5
f 461/1/5 458/1/5 457/1/5
f 462/1/5 458/1/5 461/1/5
f 463/1/5 460/1/5 459/1/5
f 464/1/5 460/1/5 463/1/5
f 469/1/5 466/1/5 465/1/5
f 470/1/5 466/1/5 469/1/5
f 471/1/5 468/1/5 467/1/5
f 472/1/5 468/1/5 471/1/5
f 477/1/5 474/1/5 473/1/5
f 478/1/5 474/1/5 477/1/5
f 479/1/5 476/1/5 475/1/5
f 480/1/5 476/1/5 479/1/5
f 481/2/6 482/2/6 485/2/6
f 485/2/6 482/2/6 486/2/6
f 483/2/6 484/2/6 487/2/6
f 487/2/6 484/2/6 488/2/6
f 489/2/6 490/2/6 493/2/6
f 493/2/6 490/2/6 494/2/6
f 491/2/6 492/2/6 495/2/6
f 495/2/6 492/2/6 496/2/6
f 497/2/6 498/2/6 501/2/6
f 501/2/6 498/2/6 502/2/6
f 499/2/6 500/2/6 503/2/6
f 503/2/6 500/2/6 504/2/6
f 505/1/6 506/1/6 509/1/6
f 509/1/6 506/1/6 510/1/6
f 507/1/6 508/1/6 511/1/6
f 511/1/6 508/1/6 512/1/6
f 513/1/6 514/1/6 517/1/6
f 517/1/6 514/1/6 518/1/6
f 515/1/6 516/1/6 519/1/6
f 519/1/6 516/1/6 520/1/6
f 521/1/6 522/1/6 525/1/6
f 525/1/6 522/1/6 526/1/6
f 523/1/6 524/1/6 527/1/6
f 527/1/6 524/1/6 528/1/6
f 529/1/6 530/1/6 533/1/6
f 533/1/6 530/1/6 534/1/6
f 531/1/6 532/1/6 535/1/6
f 535/1/6 532/1/6 536/1/6
f 537/3/6 538/3/6 541/3/6
f 541/3/6 538/3/6 542/3/6
f 539/3/6 540/3/6 543/3/6
f 543/3/6 540/3/6 544/3/6
f 545/1/6 546/1/6 549/1/6
f 549/1/6 546/1/6 550/1/6
f 547/1/6 548/1/6 551/1/6
f 551/1/6 548/1/6 552/1/6
f 553/1/6 554/1/6 557/1/6
f 557/1/6 554/1/6 558/1/6
f 555/1/6 556/1/6 559/1/6
f 559/1/6 556/1/6 560/1/6
f 561/1/6 562/1/6 565/1/6
f 565/1/6 562/1/6 566/1/6
f 563/1/6 564/1/6 567/1/6
f 567/1/6 564/1/6 568/1/6
f 569/1/6 570/1/6 573/1/6
f 573/1/6 570/1/6 574/1/6
f 571/1/6 572/1/6 575/1/6
f 575/1/6 572/1/6 576/1/6
f 577/1/6 578/1/6 581/1/6
f 581/1/6 578/1/6 582/1/6
f 579/1/6 580/1/6 583/1/6
f 583/1/6 580/1/6 584/1/6
f 585/1/6 586/1/6 587/1/6
f 587/1/6 586/1/6 588/1/6
