# MagicaVoxel @ Ephtracy

# group
o 

# material
mtllib gun.mtl
usemtl palette

# normals
vn -1 0 0
vn 1 0 0
vn 0 0 1
vn 0 0 -1
vn 0 -1 0
vn 0 1 0

# texcoords
vt 0.537109 0.5
vt 0.966797 0.5
vt 0.994141 0.5

# verts
v -0.5 0.7 0
v -0.5 0.7 -0.1
v -0.5 0.8 0
v -0.5 0.8 -0.1
v -0.3 0.2 0
v -0.3 0.2 -0.1
v -0.3 0.4 0
v -0.3 0.4 -0.1
v -0.3 0.6 0.1
v -0.3 0.6 -0.2
v -0.3 0.7 0
v -0.3 0.7 -0.1
v -0.3 0.8 0
v -0.3 0.8 -0.1
v -0.3 0.9 0.1
v -0.3 0.9 0
v -0.3 0.9 -0.1
v -0.3 0.9 -0.2
v -0.2 0.4 0
v -0.2 0.4 -0.1
v -0.2 0.6 0
v -0.2 0.6 -0.1
v -0.2 0.8 0
v -0.2 0.8 -0.1
v -0.2 0.9 0
v -0.2 0.9 -0.1
v 0.1 0.5 0
v 0.1 0.5 -0.1
v 0.1 0.6 0
v 0.1 0.6 -0.1
v 0.2 0.4 0
v 0.2 0.4 -0.1
v 0.2 0.5 0
v 0.2 0.5 -0.1
v 0.4 0.3 0
v 0.4 0.3 -0.1
v 0.4 0.5 0
v 0.4 0.5 -0.1
v -0.1 0.2 0
v -0.1 0.2 -0.1
v -0.1 0.3 0
v -0.1 0.3 -0.1
v 0 0.3 0
v 0 0.3 -0.1
v 0 0.6 0
v 0 0.6 -0.1
v 0.2 0.8 0
v 0.2 0.8 -0.1
v 0.2 0.9 0
v 0.2 0.9 -0.1
v 0.3 0.4 0
v 0.3 0.4 -0.1
v 0.3 0.5 0
v 0.3 0.5 -0.1
v 0.3 0.6 0.1
v 0.3 0.6 0
v 0.3 0.6 -0.1
v 0.3 0.6 -0.2
v 0.3 0.7 0.1
v 0.3 0.7 0
v 0.3 0.7 -0.1
v 0.3 0.7 -0.2
v 0.3 0.8 0.1
v 0.3 0.8 0
v 0.3 0.8 -0.1
v 0.3 0.8 -0.2
v 0.3 0.9 0.1
v 0.3 0.9 0
v 0.3 0.9 -0.1
v 0.3 0.9 -0.2
v 0.4 0.7 0.1
v 0.4 0.7 0
v 0.4 0.7 -0.1
v 0.4 0.7 -0.2
v 0.4 0.8 0.1
v 0.4 0.8 0
v 0.4 0.8 -0.1
v 0.4 0.8 -0.2
v 0.5 0.3 0
v 0.5 0.3 -0.1
v 0.5 0.8 0
v 0.5 0.8 -0.1
v -0.3 0.6 0.1
v -0.3 0.9 0.1
v -0.2 0.6 0.1
v -0.2 0.7 0.1
v 0.2 0.6 0.1
v 0.2 0.7 0.1
v 0.3 0.6 0.1
v 0.3 0.7 0.1
v 0.3 0.8 0.1
v 0.3 0.9 0.1
v 0.4 0.7 0.1
v 0.4 0.8 0.1
v -0.5 0.7 0
v -0.5 0.8 0
v -0.3 0.2 0
v -0.3 0.4 0
v -0.3 0.7 0
v -0.3 0.8 0
v -0.2 0.4 0
v -0.2 0.6 0
v -0.1 0.2 0
v -0.1 0.3 0
v 0 0.3 0
v 0 0.6 0
v 0.1 0.5 0
v 0.1 0.6 0
v 0.2 0.4 0
v 0.2 0.5 0
v 0.2 0.6 0
v 0.3 0.4 0
v 0.3 0.5 0
v 0.3 0.6 0
v 0.3 0.7 0
v 0.4 0.3 0
v 0.4 0.5 0
v 0.4 0.7 0
v 0.4 0.8 0
v 0.5 0.3 0
v 0.5 0.8 0
v -0.3 0.8 -0.1
v -0.3 0.9 -0.1
v -0.2 0.8 -0.1
v -0.2 0.9 -0.1
v 0.2 0.8 -0.1
v 0.2 0.9 -0.1
v 0.3 0.8 -0.1
v 0.3 0.9 -0.1
v -0.3 0.8 0
v -0.3 0.9 0
v -0.2 0.8 0
v -0.2 0.9 0
v 0.2 0.8 0
v 0.2 0.9 0
v 0.3 0.8 0
v 0.3 0.9 0
v -0.5 0.7 -0.1
v -0.5 0.8 -0.1
v -0.3 0.2 -0.1
v -0.3 0.4 -0.1
v -0.3 0.7 -0.1
v -0.3 0.8 -0.1
v -0.2 0.4 -0.1
v -0.2 0.6 -0.1
v -0.1 0.2 -0.1
v -0.1 0.3 -0.1
v 0 0.3 -0.1
v 0 0.6 -0.1
v 0.1 0.5 -0.1
v 0.1 0.6 -0.1
v 0.2 0.4 -0.1
v 0.2 0.5 -0.1
v 0.2 0.6 -0.1
v 0.3 0.4 -0.1
v 0.3 0.5 -0.1
v 0.3 0.6 -0.1
v 0.3 0.7 -0.1
v 0.4 0.3 -0.1
v 0.4 0.5 -0.1
v 0.4 0.7 -0.1
v 0.4 0.8 -0.1
v 0.5 0.3 -0.1
v 0.5 0.8 -0.1
v -0.3 0.6 -0.2
v -0.3 0.9 -0.2
v -0.2 0.6 -0.2
v -0.2 0.7 -0.2
v 0.2 0.6 -0.2
v 0.2 0.7 -0.2
v 0.3 0.6 -0.2
v 0.3 0.7 -0.2
v 0.3 0.8 -0.2
v 0.3 0.9 -0.2
v 0.4 0.7 -0.2
v 0.4 0.8 -0.2
v -0.3 0.2 0
v -0.1 0.2 0
v -0.3 0.2 -0.1
v -0.1 0.2 -0.1
v -0.1 0.3 0
v 0 0.3 0
v 0.4 0.3 0
v 0.5 0.3 0
v -0.1 0.3 -0.1
v 0 0.3 -0.1
v 0.4 0.3 -0.1
v 0.5 0.3 -0.1
v 0.2 0.4 0
v 0.3 0.4 0
v 0.2 0.4 -0.1
v 0.3 0.4 -0.1
v 0.1 0.5 0
v 0.2 0.5 0
v 0.3 0.5 0
v 0.4 0.5 0
v 0.1 0.5 -0.1
v 0.2 0.5 -0.1
v 0.3 0.5 -0.1
v 0.4 0.5 -0.1
v -0.3 0.6 0.1
v -0.2 0.6 0.1
v 0.2 0.6 0.1
v 0.3 0.6 0.1
v -0.2 0.6 0
v 0 0.6 0
v 0.1 0.6 0
v 0.2 0.6 0
v 0.3 0.6 0
v -0.2 0.6 -0.1
v 0 0.6 -0.1
v 0.1 0.6 -0.1
v 0.2 0.6 -0.1
v 0.3 0.6 -0.1
v -0.3 0.6 -0.2
v -0.2 0.6 -0.2
v 0.2 0.6 -0.2
v 0.3 0.6 -0.2
v 0.3 0.7 0.1
v 0.4 0.7 0.1
v -0.5 0.7 0
v -0.3 0.7 0
v 0.3 0.7 0
v 0.4 0.7 0
v -0.5 0.7 -0.1
v -0.3 0.7 -0.1
v 0.3 0.7 -0.1
v 0.4 0.7 -0.1
v 0.3 0.7 -0.2
v 0.4 0.7 -0.2
v -0.3 0.4 0
v -0.2 0.4 0
v -0.3 0.4 -0.1
v -0.2 0.4 -0.1
v 0.3 0.8 0.1
v 0.4 0.8 0.1
v -0.5 0.8 0
v -0.3 0.8 0
v -0.2 0.8 0
v 0.2 0.8 0
v 0.3 0.8 0
v 0.4 0.8 0
v 0.5 0.8 0
v -0.5 0.8 -0.1
v -0.3 0.8 -0.1
v -0.2 0.8 -0.1
v 0.2 0.8 -0.1
v 0.3 0.8 -0.1
v 0.4 0.8 -0.1
v 0.5 0.8 -0.1
v 0.3 0.8 -0.2
v 0.4 0.8 -0.2
v -0.3 0.9 0.1
v 0.3 0.9 0.1
v -0.3 0.9 0
v -0.2 0.9 0
v 0.2 0.9 0
v 0.3 0.9 0
v -0.3 0.9 -0.1
v -0.2 0.9 -0.1
v 0.2 0.9 -0.1
v 0.3 0.9 -0.1
v -0.3 0.9 -0.2
v 0.3 0.9 -0.2

# faces
f 3/3/1 2/3/1 1/3/1
f 4/3/1 2/3/1 3/3/1
f 7/3/1 6/3/1 5/3/1
f 8/3/1 6/3/1 7/3/1
f 11/3/1 10/3/1 9/3/1
f 12/3/1 10/3/1 11/3/1
f 13/3/1 11/3/1 9/3/1
f 14/3/1 10/3/1 12/3/1
f 15/3/1 13/3/1 9/3/1
f 16/3/1 13/3/1 15/3/1
f 17/3/1 10/3/1 14/3/1
f 18/3/1 10/3/1 17/3/1
f 21/3/1 20/3/1 19/3/1
f 22/3/1 20/3/1 21/3/1
f 25/3/1 24/3/1 23/3/1
f 26/3/1 24/3/1 25/3/1
f 29/3/1 28/3/1 27/3/1
f 30/3/1 28/3/1 29/3/1
f 33/3/1 32/3/1 31/3/1
f 34/3/1 32/3/1 33/3/1
f 37/1/1 36/1/1 35/1/1
f 38/1/1 36/1/1 37/1/1
f 39/3/2 40/3/2 41/3/2
f 41/3/2 40/3/2 42/3/2
f 43/3/2 44/3/2 45/3/2
f 45/3/2 44/3/2 46/3/2
f 47/3/2 48/3/2 49/3/2
f 49/3/2 48/3/2 50/3/2
f 51/3/2 52/3/2 53/3/2
f 53/3/2 52/3/2 54/3/2
f 55/3/2 56/3/2 59/3/2
f 59/3/2 56/3/2 60/3/2
f 57/3/2 58/3/2 61/3/2
f 61/3/2 58/3/2 62/3/2
f 63/3/2 64/3/2 67/3/2
f 67/3/2 64/3/2 68/3/2
f 65/3/2 66/3/2 69/3/2
f 69/3/2 66/3/2 70/3/2
f 71/1/2 72/1/2 75/1/2
f 75/1/2 72/1/2 76/1/2
f 73/1/2 74/1/2 77/1/2
f 77/1/2 74/1/2 78/1/2
f 79/1/2 80/1/2 81/1/2
f 81/1/2 80/1/2 82/1/2
f 85/3/3 84/3/3 83/3/3
f 86/3/3 84/3/3 85/3/3
f 87/2/3 86/2/3 85/2/3
f 88/3/3 84/3/3 86/3/3
f 88/2/3 86/2/3 87/2/3
f 89/3/3 88/3/3 87/3/3
f 90/3/3 84/3/3 88/3/3
f 90/3/3 88/3/3 89/3/3
f 91/3/3 84/3/3 90/3/3
f 92/3/3 84/3/3 91/3/3
f 93/1/3 91/1/3 90/1/3
f 94/1/3 91/1/3 93/1/3
f 99/3/3 96/3/3 95/3/3
f 100/3/3 96/3/3 99/3/3
f 101/3/3 98/3/3 97/3/3
f 103/3/3 101/3/3 97/3/3
f 103/3/3 102/3/3 101/3/3
f 104/3/3 102/3/3 103/3/3
f 105/3/3 102/3/3 104/3/3
f 106/3/3 102/3/3 105/3/3
f 110/3/3 108/3/3 107/3/3
f 111/3/3 108/3/3 110/3/3
f 112/3/3 110/3/3 109/3/3
f 112/3/3 111/3/3 110/3/3
f 113/3/3 111/3/3 112/3/3
f 114/3/3 111/3/3 113/3/3
f 117/1/3 114/1/3 113/1/3
f 117/1/3 115/1/3 114/1/3
f 118/1/3 115/1/3 117/1/3
f 120/1/3 117/1/3 116/1/3
f 120/1/3 119/1/3 118/1/3
f 120/1/3 118/1/3 117/1/3
f 121/1/3 119/1/3 120/1/3
f 124/3/3 123/3/3 122/3/3
f 125/3/3 123/3/3 124/3/3
f 128/3/3 127/3/3 126/3/3
f 129/3/3 127/3/3 128/3/3
f 130/3/4 131/3/4 132/3/4
f 132/3/4 131/3/4 133/3/4
f 134/3/4 135/3/4 136/3/4
f 136/3/4 135/3/4 137/3/4
f 138/3/4 139/3/4 142/3/4
f 142/3/4 139/3/4 143/3/4
f 140/3/4 141/3/4 144/3/4
f 140/3/4 144/3/4 146/3/4
f 144/3/4 145/3/4 146/3/4
f 146/3/4 145/3/4 147/3/4
f 147/3/4 145/3/4 148/3/4
f 148/3/4 145/3/4 149/3/4
f 150/3/4 151/3/4 153/3/4
f 153/3/4 151/3/4 154/3/4
f 152/3/4 153/3/4 155/3/4
f 153/3/4 154/3/4 155/3/4
f 155/3/4 154/3/4 156/3/4
f 156/3/4 154/3/4 157/3/4
f 156/1/4 157/1/4 160/1/4
f 157/1/4 158/1/4 160/1/4
f 160/1/4 158/1/4 161/1/4
f 159/1/4 160/1/4 163/1/4
f 161/1/4 162/1/4 163/1/4
f 160/1/4 161/1/4 163/1/4
f 163/1/4 162/1/4 164/1/4
f 165/3/4 166/3/4 167/3/4
f 167/3/4 166/3/4 168/3/4
f 167/2/4 168/2/4 169/2/4
f 168/3/4 166/3/4 170/3/4
f 169/2/4 168/2/4 170/2/4
f 169/3/4 170/3/4 171/3/4
f 170/3/4 166/3/4 172/3/4
f 171/3/4 170/3/4 172/3/4
f 172/3/4 166/3/4 173/3/4
f 173/3/4 166/3/4 174/3/4
f 172/1/4 173/1/4 175/1/4
f 175/1/4 173/1/4 176/1/4
f 179/3/5 178/3/5 177/3/5
f 180/3/5 178/3/5 179/3/5
f 185/3/5 182/3/5 181/3/5
f 186/3/5 182/3/5 185/3/5
f 187/1/5 184/1/5 183/1/5
f 188/1/5 184/1/5 187/1/5
f 191/3/5 190/3/5 189/3/5
f 192/3/5 190/3/5 191/3/5
f 197/3/5 194/3/5 193/3/5
f 198/3/5 194/3/5 197/3/5
f 199/1/5 196/1/5 195/1/5
f 200/1/5 196/1/5 199/1/5
f 205/3/5 202/3/5 201/3/5
f 205/2/5 203/2/5 202/2/5
f 206/2/5 203/2/5 205/2/5
f 207/2/5 203/2/5 206/2/5
f 208/3/5 204/3/5 203/3/5
f 208/2/5 203/2/5 207/2/5
f 209/3/5 204/3/5 208/3/5
f 210/3/5 205/3/5 201/3/5
f 211/2/5 207/2/5 206/2/5
f 212/2/5 207/2/5 211/2/5
f 215/3/5 210/3/5 201/3/5
f 216/2/5 211/2/5 210/2/5
f 216/3/5 210/3/5 215/3/5
f 216/2/5 212/2/5 211/2/5
f 216/2/5 213/2/5 212/2/5
f 217/3/5 214/3/5 213/3/5
f 217/2/5 213/2/5 216/2/5
f 218/3/5 214/3/5 217/3/5
f 223/1/5 220/1/5 219/1/5
f 224/1/5 220/1/5 223/1/5
f 225/3/5 222/3/5 221/3/5
f 226/3/5 222/3/5 225/3/5
f 229/1/5 228/1/5 227/1/5
f 230/1/5 228/1/5 229/1/5
f 231/3/6 232/3/6 233/3/6
f 233/3/6 232/3/6 234/3/6
f 235/1/6 236/1/6 241/1/6
f 241/1/6 236/1/6 242/1/6
f 238/3/6 239/3/6 244/3/6
f 237/3/6 238/3/6 244/3/6
f 244/3/6 239/3/6 245/3/6
f 245/3/6 239/3/6 246/3/6
f 240/3/6 241/3/6 247/3/6
f 242/1/6 243/1/6 248/1/6
f 247/3/6 241/3/6 248/3/6
f 241/1/6 242/1/6 248/1/6
f 248/1/6 243/1/6 249/1/6
f 249/1/6 243/1/6 250/1/6
f 248/1/6 249/1/6 251/1/6
f 251/1/6 249/1/6 252/1/6
f 253/3/6 254/3/6 255/3/6
f 255/3/6 254/3/6 256/3/6
f 256/3/6 254/3/6 257/3/6
f 257/3/6 254/3/6 258/3/6
f 256/3/6 257/3/6 260/3/6
f 260/3/6 257/3/6 261/3/6
f 259/3/6 260/3/6 263/3/6
f 261/3/6 262/3/6 263/3/6
f 260/3/6 261/3/6 263/3/6
f 263/3/6 262/3/6 264/3/6
